<svg fill="#666666" xmlns="http://www.w3.org/2000/svg" height="575pt" viewBox="1 -172 575.96 575" width="575pt"><path d="M240 86.89h38.398v19.204H240zm0 0"/><path d="M567.762 58.188l-65.211-9.313a329.028 329.028 0 00-36.953-19.582A323.284 323.284 0 00331.852.493h-11.329a326.318 326.318 0 00-155.816 39.734l-32.91 17.953A226.834 226.834 0 0022.023 87.938 43.826 43.826 0 000 125.886v57.004a9.6 9.6 0 009.602 9.601h32.234c10.484 29.91 43.23 45.66 73.14 35.176a57.382 57.382 0 0035.176-35.176h256.485c10.484 29.91 43.23 45.66 73.14 35.176a57.391 57.391 0 0035.176-35.176h3.445c1.223 0 2.434-.23 3.57-.683l31.095-12.477A36.303 36.303 0 00576 145.453V67.691a9.605 9.605 0 00-8.238-9.504zm-434.14 122.785c-4.247 20.777-24.532 34.18-45.31 29.933-20.78-4.246-34.183-24.531-29.937-45.312 4.25-20.778 24.535-34.18 45.313-29.934 17.878 3.653 30.714 19.383 30.71 37.633a38.43 38.43 0 01-.777 7.68zm173.577-7.68H153.598c0-31.813-25.786-57.602-57.598-57.602-31.813 0-57.602 25.79-57.602 57.602H19.2v-47.406a24.556 24.556 0 0112.356-21.282 207.555 207.555 0 01102.843-27.312H307.2zm0-115.2H172.051l1.851-1.011A306.958 306.958 0 01307.2 20.113zm19.2-38.402h5.433a303.837 303.837 0 01112.957 21.641l-16.762 16.762H326.398zm172.023 161.282c-4.246 20.777-24.531 34.18-45.313 29.933-20.777-4.246-34.18-24.531-29.933-45.312 4.246-20.778 24.535-34.18 45.312-29.934 17.88 3.653 30.715 19.383 30.711 37.633a38.43 38.43 0 01-.777 7.68zM556.8 86.89H528v19.203h28.8v39.36a17.182 17.182 0 01-10.866 16.038l-27.536 11.059c0-.883-.113-1.758-.171-2.64-.059-.884-.079-1.919-.172-2.88-.098-.96-.29-1.922-.442-2.879-.156-.96-.27-1.922-.46-2.793-.192-.875-.473-1.843-.723-2.757-.25-.91-.442-1.832-.73-2.727-.286-.89-.634-1.746-.958-2.621-.328-.871-.625-1.774-.96-2.64-.337-.864-.79-1.65-1.192-2.466-.403-.816-.797-1.71-1.246-2.535-.453-.824-.961-1.527-1.395-2.293-.43-.77-.957-1.644-1.504-2.43-.55-.788-1.058-1.41-1.586-2.12-.527-.711-1.125-1.547-1.738-2.286-.613-.738-1.187-1.316-1.785-1.922-.594-.601-1.258-1.417-1.918-2.09-.664-.671-1.316-1.202-1.977-1.796-.664-.594-1.375-1.297-2.105-1.922-.727-.621-1.469-1.102-2.195-1.649-.73-.546-1.461-1.132-2.227-1.644-.77-.508-1.633-.957-2.457-1.496-.828-.54-1.5-.961-2.277-1.371-.778-.414-1.746-.848-2.63-1.27-.882-.422-1.573-.797-2.39-1.14-.816-.348-1.922-.711-2.879-1.055-.96-.348-1.586-.617-2.402-.875-1.094-.336-2.215-.578-3.332-.856-.73-.171-1.43-.402-2.168-.554-1.18-.242-2.39-.375-3.59-.551-.71-.094-1.39-.25-2.101-.316a58.518 58.518 0 00-5.856-.297c-31.8.03-57.57 25.8-57.602 57.601h-76.828V77.29H432a9.584 9.584 0 006.785-2.812l24.895-24.895a307.841 307.841 0 0130.433 16.648 9.628 9.628 0 003.723 1.364l58.965 8.418zm0 0"/></svg>