<svg fill="#666666" height="512pt" viewBox="0 -85 512.002 512" width="512pt" xmlns="http://www.w3.org/2000/svg"><path d="M119.469 256.004c0-18.852-15.281-34.133-34.133-34.133-18.852 0-34.133 15.281-34.133 34.133 0 18.851 15.281 34.133 34.133 34.133 18.844-.02 34.113-15.29 34.133-34.133zm-51.2 0c0-9.426 7.641-17.067 17.067-17.067s17.066 7.641 17.066 17.067-7.64 17.066-17.066 17.066c-9.422-.008-17.059-7.644-17.066-17.066zm0 0"/><path d="M503.469 119.469H334.195c16.707-38.207 3.336-82.89-31.605-105.645-34.945-22.758-81.219-16.91-109.406 13.82l-.043.032L24.906 195.719c-.11.113-.144.261-.25.375C.45 220.563-6.676 257.18 6.594 288.938c13.265 31.757 44.324 52.425 78.742 52.398h213.332a8.533 8.533 0 100-17.066h-13.531l17.066-17.067h30.598a8.533 8.533 0 100-17.066H319.27l17.066-17.067h30.598a8.533 8.533 0 100-17.066h-13.532l17.067-17.067h30.601c4.711 0 8.532-3.82 8.532-8.535 0-4.71-3.82-8.53-8.532-8.53h-13.535l17.067-17.067h30.601c4.711 0 8.531-3.82 8.531-8.535 0-4.711-3.82-8.532-8.53-8.532h-13.536l17.066-17.066h30.602c4.71 0 8.531-3.82 8.531-8.535 0-4.711-3.82-8.532-8.531-8.532H455.8l17.07-17.066h30.598a8.536 8.536 0 000-17.07zm-179.2-34.133a67.492 67.492 0 01-20.007 48.215l-.008.012-.016.007-134.535 134.57a84.706 84.706 0 00-96.543-96.5L205.2 39.75c.05-.05.066-.125.116-.176.051-.054.125-.078.18-.133 18.961-20.882 48.813-27.949 75.125-17.785 26.309 10.168 43.656 35.473 43.649 63.68zM17.07 256.004c0-37.703 30.563-68.266 68.266-68.266s68.266 30.563 68.266 68.266-30.563 68.266-68.266 68.266c-37.684-.043-68.223-30.582-68.266-68.266zm127.559 61.238c.113-.101.254-.133.363-.242l171.313-171.36.007-.007a85.862 85.862 0 007.844-9.117l.114.023h124.464L292.633 292.641 261 324.27H136.32a86.341 86.341 0 008.309-7.028zm0 0"/></svg>