<svg fill="#666666" xmlns="http://www.w3.org/2000/svg" width="512" height="512"><path d="M496 158.806A30.863 30.863 0 00465.15 128h-96.39a29.117 29.117 0 00-10.867 2.09 11.605 11.605 0 00-6.654-2.09h-78.478a29.117 29.117 0 00-10.868 2.09 11.605 11.605 0 00-6.654-2.09h-78.478a28.962 28.962 0 00-20.613 8.538A68.343 68.343 0 00136 185.181V192H49.547a32 32 0 00-31.938 33.996L24.016 328.5A8 8 0 0032 336h8v24a8 8 0 008 8h32a8 8 0 008-8v-24h256v24a8 8 0 008 8h32a8 8 0 008-8v-24h16v24a8 8 0 008 8h32a8 8 0 008-8v-29.744a270.858 270.858 0 0040-141.728zM344 185.18a52.448 52.448 0 0115.46-37.328l.002-.001A13.066 13.066 0 01368.76 144h68.885A67.542 67.542 0 00424 184.867V192h-80zm102.422 39.817L440.484 320h-55.968l5.875-94.004A32.111 32.111 0 00386.146 208h44.307a16 16 0 0115.969 16.998zM263.46 147.853v-.001a13.066 13.066 0 019.3-3.852h68.91A68.276 68.276 0 00328 185.18v11.125A31.949 31.949 0 00316.302 240H264a23.9 23.9 0 00-16 6.13v-60.95a52.448 52.448 0 0115.46-37.327zM72 256h64a8.01 8.01 0 018 8v8H72zm88 8a8.01 8.01 0 018-8h64a8.01 8.01 0 018 8v8h-80zm96 0a8.01 8.01 0 018-8h64a8.01 8.01 0 018 8v8h-80zm-104-78.82a52.449 52.449 0 0115.462-37.328A13.066 13.066 0 01176.76 144h68.91A68.276 68.276 0 00232 185.18V240h-64a24.015 24.015 0 00-4.558.44A31.955 31.955 0 00152 196.305zm0 38.82a16.018 16.018 0 01-16 16H91.698a31.895 31.895 0 00-.003-32H136a16.018 16.018 0 0116 16zm-118.422.998A16 16 0 0149.547 208H64a16 16 0 010 32 8 8 0 00-8 8v32a8 8 0 008 8h280a8 8 0 008-8v-32a8 8 0 00-8-8 16 16 0 010-32h14.453a16 16 0 0115.969 16.998L368.484 320H39.516zM72 352H56v-16h16zm304 0h-16v-16h16zm48 0v-16h16v16zm56-163.472a254.865 254.865 0 01-21.704 102.98l4.095-65.512A31.965 31.965 0 00440 193.47v-8.603a51.716 51.716 0 0115.109-36.66l.318-.32a13.048 13.048 0 019.326-3.887h.396A14.845 14.845 0 01480 158.806z" data-name="Out line"/></svg>