<svg fill="#666666" xmlns="http://www.w3.org/2000/svg" viewBox="0 0 511.999 511.999"><circle cx="116.32" cy="462.288" r="11.961"/><path d="M462.599 381.562a25.014 25.014 0 003.825-13.316v-4.212c0-13.88-11.291-25.17-25.17-25.17h-78.257c-1.7 0-3.361.171-4.967.495l14.054-70.82c2.061-10.386 2.295-20.595.695-30.345-2.659-16.209-11.221-35.529-36.907-35.529a7.512 7.512 0 00-7.406 6.253l-4.93 29.01c-1.948 11.461-4.621 22.378-7.942 32.448-9.197 27.887-20.802 42.181-41.39 50.987a1080.309 1080.309 0 00-21.136 9.307H222.08v-6.005a7.51 7.51 0 00-7.512-7.512h-50.853v-8.105a7.51 7.51 0 00-7.512-7.512H29.925a7.51 7.51 0 00-7.512 7.512v44.576a7.511 7.511 0 007.512 7.512 7.511 7.511 0 007.512-7.512V316.56h111.255V493.39H37.438V378.665a7.51 7.51 0 00-7.512-7.512 7.511 7.511 0 00-7.512 7.512v122.237a7.511 7.511 0 007.512 7.512h126.279a7.51 7.51 0 007.512-7.512v-8.105h50.853a7.51 7.51 0 007.512-7.512v-3.521h29.96l16.143 13.069c13.552 10.972 30.618 17.014 48.056 17.014h45.767c.053 0 .104-.007.156-.008.966.103 1.944.16 2.937.16h53.663c15.041 0 27.277-12.236 27.277-27.276 0-4.514-1.109-8.772-3.059-12.527 13.23-1.871 23.44-13.263 23.44-27.001a27.125 27.125 0 00-4.537-15.043c8.111-4.184 13.672-12.642 13.672-22.38v-4.211c.002-9.449-5.235-17.695-12.958-21.999zm-99.602-27.671h78.257v-.001c5.594 0 10.146 4.551 10.146 10.146v4.212c0 5.594-4.551 10.146-10.146 10.146h-78.257c-5.594 0-10.146-4.551-10.146-10.146v-4.038a162.53 162.53 0 001.286-5.103c1.736-3.108 5.055-5.216 8.86-5.216zm-25.171 130.835c0 4.343 1.026 8.45 2.84 12.099H316.24a61.554 61.554 0 01-38.6-13.669l-18.212-14.743a7.51 7.51 0 00-4.727-1.674h-32.62v-21.542a7.51 7.51 0 00-7.512-7.512 7.511 7.511 0 00-7.512 7.512v32.576h-43.341V332.178h43.341v87.979a7.511 7.511 0 007.512 7.512 7.51 7.51 0 007.512-7.512v-74.461h32.62a7.506 7.506 0 003.139-.687c.095-.043 9.631-4.424 22.272-9.831 24.751-10.584 39.164-27.995 49.752-60.096 3.556-10.783 6.409-22.435 8.484-34.635l3.756-22.1c8.815 2.056 13.675 9.044 15.847 22.282 1.307 7.967 1.104 16.374-.606 24.987l-16.016 80.709a6.88 6.88 0 00-.076.456c-.019.14-.424 2.962-1.418 7.407a24.972 24.972 0 00-1.897 7.522c-5.951 21.245-21.266 57.652-56.33 57.652a7.511 7.511 0 00-7.512 7.512 7.511 7.511 0 007.512 7.512c23.252 0 42.635-11.998 56.54-34.819a25.326 25.326 0 00-.321 3.998v4.212c0 7.188 3.033 13.676 7.881 18.267-4.869 4.929-7.881 11.696-7.881 19.155 0 7.773 3.273 14.791 8.507 19.763-5.236 4.973-8.508 11.99-8.508 19.764zm80.94 12.249h-53.663c-6.755 0-12.251-5.496-12.251-12.251s5.496-12.252 12.251-12.252h53.663c6.755 0 12.252 5.496 12.252 12.252-.001 6.755-5.497 12.251-12.252 12.251zm20.383-39.527h-74.045c-6.755 0-12.251-5.496-12.251-12.251s5.496-12.251 12.251-12.251h74.046c6.755 0 12.251 5.496 12.251 12.251-.001 6.754-5.497 12.251-12.252 12.251zm21.385-49.674c.001 5.594-4.55 10.146-10.145 10.146h-87.393c-5.594 0-10.146-4.552-10.146-10.146v-4.212c0-5.594 4.551-10.146 10.146-10.146H450.388c5.594 0 10.146 4.551 10.146 10.146v4.212zM173.123 108.399c-1.666-5.123-6.012-8.786-11.343-9.561l-34.159-4.964-15.276-30.953c-2.385-4.831-7.213-7.832-12.601-7.832-5.387 0-10.215 3.001-12.6 7.832L71.87 93.874l-34.158 4.964c-5.332.774-9.678 4.437-11.344 9.561-1.666 5.123-.304 10.643 3.555 14.407l24.718 24.093-5.834 34.02c-.911 5.311 1.231 10.576 5.588 13.744a14.001 14.001 0 008.247 2.698c2.233 0 4.477-.539 6.552-1.629l30.552-16.062 30.552 16.062c4.769 2.507 10.438 2.097 14.796-1.069 4.359-3.166 6.501-8.433 5.59-13.744l-5.835-34.02 24.718-24.095c3.859-3.761 5.221-9.281 3.556-14.405zm-39.128 28.097a14.047 14.047 0 00-4.042 12.437l5.588 32.58-29.259-15.381a14.047 14.047 0 00-13.078-.001l-29.259 15.382 5.587-32.58a14.052 14.052 0 00-4.04-12.437L41.82 113.423l32.715-4.754a14.045 14.045 0 0010.58-7.687l14.629-29.644 14.628 29.642a14.042 14.042 0 0010.58 7.689l32.712 4.754-23.669 23.073zM331.151 53.309c-1.666-5.123-6.012-8.786-11.343-9.561l-34.159-4.964-15.276-30.952C267.989 3.001 263.161 0 257.773 0s-10.215 3.001-12.6 7.832l-15.276 30.953-34.158 4.964c-5.332.773-9.678 4.437-11.344 9.561-1.666 5.123-.304 10.643 3.555 14.407l24.719 24.094-5.835 34.019c-.911 5.311 1.231 10.576 5.588 13.744 4.359 3.167 10.027 3.576 14.798 1.07l30.552-16.062 30.552 16.062a14.05 14.05 0 006.552 1.629 14.01 14.01 0 008.247-2.698c4.358-3.167 6.5-8.433 5.588-13.743l-5.835-34.02 24.72-24.095c3.858-3.764 5.22-9.284 3.555-14.408zm-39.127 28.098a14.054 14.054 0 00-4.042 12.437l5.588 32.58-29.26-15.382a14.051 14.051 0 00-13.077 0l-29.259 15.382 5.588-32.58a14.05 14.05 0 00-4.041-12.437L199.85 58.334l32.713-4.754a14.046 14.046 0 0010.581-7.687l14.629-29.643 14.629 29.644a14.047 14.047 0 0010.58 7.686l32.713 4.754-23.671 23.073zM488.887 108.4c-1.666-5.123-6.012-8.786-11.343-9.561l-34.159-4.964-15.275-30.953c-2.385-4.831-7.212-7.832-12.6-7.832s-10.215 3.001-12.6 7.832l-15.276 30.953-34.158 4.964c-5.332.774-9.678 4.437-11.344 9.561-1.665 5.124-.303 10.644 3.556 14.406l24.718 24.095-5.835 34.019c-.911 5.311 1.23 10.576 5.588 13.744 4.359 3.167 10.026 3.577 14.798 1.07l30.552-16.062 30.552 16.062a14.05 14.05 0 006.552 1.629c2.902 0 5.784-.909 8.247-2.698 4.358-3.167 6.5-8.433 5.588-13.743l-5.835-34.02 24.72-24.094c3.857-3.765 5.22-9.285 3.554-14.408zm-39.128 28.098a14.051 14.051 0 00-4.04 12.435l5.588 32.58-29.26-15.382a14.05 14.05 0 00-13.077 0l-29.259 15.382 5.588-32.58a14.046 14.046 0 00-4.041-12.437l-23.671-23.073 32.711-4.754a14.048 14.048 0 0010.581-7.687L415.51 71.34l14.629 29.644a14.05 14.05 0 0010.58 7.686l32.713 4.754-23.673 23.074z"/></svg>