<svg fill="#666666" height="512pt" viewBox="0 -106 512 512" width="512pt" xmlns="http://www.w3.org/2000/svg"><path d="M501.957 88.2c5.547 0 10.043-4.497 10.043-10.044V10.043C512 4.496 507.504 0 501.957 0H10.043C4.496 0 0 4.496 0 10.043v68.113C0 83.703 4.496 88.2 10.043 88.2c34.281 0 62.172 27.89 62.172 62.172s-27.89 62.172-62.172 62.172C4.496 212.543 0 217.039 0 222.586v68.113c0 5.547 4.496 10.043 10.043 10.043h89.293c5.547 0 10.043-4.496 10.043-10.043s-4.496-10.043-10.043-10.043h-79.25V232.02C60.723 227.05 92.3 192.328 92.3 150.37s-31.578-76.68-72.215-81.648V20.086H365.02v20.082c0 5.547 4.496 10.043 10.043 10.043s10.042-4.496 10.042-10.043V20.086h106.81v48.637c-40.638 4.968-72.216 39.691-72.216 81.648 0 41.957 31.578 76.68 72.215 81.649v48.636H385.105V260.57c0-5.547-4.496-10.039-10.043-10.039s-10.042 4.492-10.042 10.04v20.085H181.8c-5.546 0-10.042 4.496-10.042 10.043s4.496 10.043 10.043 10.043h320.156c5.547 0 10.043-4.496 10.043-10.043v-68.113c0-5.547-4.496-10.043-10.043-10.043-34.281 0-62.172-27.89-62.172-62.172S467.675 88.2 501.957 88.2zm0 0"/><path d="M375.063 197.148c5.546 0 10.042-4.496 10.042-10.043v-73.468c0-5.547-4.496-10.043-10.043-10.043s-10.042 4.496-10.042 10.043v73.468c0 5.547 4.496 10.043 10.043 10.043zm0 0M213.86 136.133c7.445-7.446 11.546-17.348 11.546-27.875 0-10.531-4.101-20.434-11.547-27.88-15.37-15.37-40.382-15.37-55.754 0-7.445 7.446-11.546 17.349-11.546 27.88 0 10.527 4.101 20.43 11.546 27.875 7.688 7.687 17.782 11.527 27.88 11.527 10.093 0 20.19-3.84 27.874-11.527zm-47.215-27.875a19.211 19.211 0 015.664-13.676c3.77-3.77 8.722-5.656 13.675-5.656s9.903 1.886 13.672 5.656a19.199 19.199 0 015.668 13.676c0 5.164-2.012 10.02-5.668 13.672-7.539 7.543-19.808 7.543-27.347 0a19.21 19.21 0 01-5.664-13.672zm0 0M248.23 169.43c-15.375 15.37-15.375 40.382 0 55.754 7.684 7.687 17.782 11.53 27.875 11.53 10.098 0 20.192-3.843 27.88-11.53 15.37-15.371 15.37-40.383 0-55.754-15.376-15.371-40.387-15.368-55.755 0zm41.551 14.203c7.54 7.539 7.54 19.808 0 27.347-7.539 7.54-19.808 7.543-27.347 0-7.543-7.539-7.543-19.808 0-27.347 3.77-3.77 8.718-5.656 13.671-5.656s9.907 1.886 13.676 5.656zm0 0M185.715 212.59l104.601-104.602c3.918-3.922 3.918-10.281 0-14.203-3.925-3.922-10.28-3.922-14.203 0L171.512 198.387c-3.63 3.629-3.903 9.617-.598 13.55 3.738 4.45 10.688 4.762 14.8.653zm0 0M140.387 280.555c-4.188 0-8.02 2.703-9.442 6.64-1.422 3.93-.187 8.477 3.043 11.14 3.239 2.669 7.895 3.028 11.504.903 3.606-2.12 5.551-6.422 4.754-10.527-.902-4.668-5.098-8.156-9.86-8.156zm0 0"/></svg>